<svg xmlns="http://www.w3.org/2000/svg" width="558" height="112" viewBox="0 0 558 112" fill="none"><g clip-path="url(#clip0_18_13)"><path d="M53.9 1.2H75.6C76.1 1.2 76.6 1.4 76.9 1.7C77.3 2 77.5 2.5 77.5 3V108.3C77.5 108.8 77.3 109.3 76.9 109.6C76.6 110 76.1 110.1 75.6 110.1H53.5C53 110.1 52.5 109.9 52.2 109.6C51.8 109.3 51.6 108.8 51.7 108.3V41.6C51.7 41.2 51.6 41 51.4 40.9C51.2 40.8 51 41 50.8 41.3L39.9 60.3C39.5 61.1 39.2 61.5 39 61.5C38.8 61.5 38.4 61.1 37.9 60.3L27 41.3C26.8 41 26.6 40.8 26.4 40.8C26.2 40.8 26.1 41 26.1 41.4V108.4C26.1 108.9 25.9 109.4 25.6 109.7C25.2 110.1 24.8 110.2 24.3 110.2H1.9C1.4 110.2 0.9 110 0.6 109.7C0.2 109.4 0 109 0 108.5V3.1C0 2.6 0.2 2.1 0.6 1.8C0.9 1.4 1.4 1.3 1.9 1.3H23.7C24.6 1.3 25.5 1.7 26 2.5L38.5 25.1C38.8 25.5 39.1 25.5 39.4 25.1L51.6 2.5C52 1.6 53 1.1 53.9 1.2Z" fill="#F6F4E8"></path><path d="M132.9 108.6L130.9 95C130.9 94.5 130.6 94.2 130 94.2H113.2C112.6 94.2 112.3 94.5 112.3 95L110.4 108.6C110.4 109.6 109.6 110.3 108.6 110.3C108.5 110.3 108.4 110.3 108.4 110.3H86.2C84.9 110.3 84.3 109.6 84.6 108.3L107.2 2.99996C107.3 1.99996 108.2 1.19996 109.2 1.29996H134.6C135.6 1.19996 136.5 1.99996 136.6 2.99996L159 108.4L159.1 109C159.1 109.9 158.5 110.4 157.4 110.4H135C134 110.5 133.1 109.9 133 108.9C133 108.8 133 108.7 132.9 108.6ZM116.3 74.3H126.7C127.1 74.3 127.3 74 127.3 73.5L121.7 38C121.6 37.6 121.4 37.4 121.2 37.4C121 37.4 120.8 37.6 120.7 38L115.5 73.5C115.6 74 115.8 74.3 116.3 74.3Z" fill="#F6F4E8"></path><path d="M173.6 108.6L151.5 3.30001L151.3 2.70001C151.3 1.80001 151.9 1.30001 153 1.30001H177.2C178.2 1.20001 179 1.80001 179.2 2.80001C179.2 2.90001 179.2 3.00001 179.2 3.00001L188.1 65.2C188.2 65.6 188.4 65.8 188.7 65.7C189 65.7 189.1 65.4 189.1 65.2L197.3 3.00001C197.3 2.00001 198.1 1.30001 199.1 1.30001C199.2 1.30001 199.2 1.30001 199.3 1.30001H222.8C224.2 1.30001 224.7 2.00001 224.4 3.30001L202.1 108.6C202 109.6 201.1 110.4 200.1 110.3H175.6C174.6 110.4 173.7 109.7 173.6 108.6Z" fill="#F6F4E8"></path><path d="M292.1 22.8C291.8 23.2 291.3 23.4 290.8 23.3H259.5C259.1 23.2 258.8 23.5 258.7 23.9C258.7 24 258.7 24 258.7 24.1V43.7001C258.6 44.1001 258.9 44.4 259.3 44.5C259.4 44.5 259.4 44.5 259.5 44.5H276.6C277.6 44.5 278.5 45.3001 278.5 46.4001V65C278.5 66 277.7 66.9 276.7 66.9H259.6C259.2 66.8 258.9 67.1 258.8 67.5C258.8 67.6 258.8 67.6 258.8 67.7V87.5C258.7 87.9 259 88.2 259.4 88.3C259.5 88.3 259.5 88.3 259.6 88.3H290.9C291.4 88.3 291.9 88.5 292.2 88.9C292.6 89.2 292.7 89.7 292.7 90.2V108.6C292.7 109.6 291.9 110.5 290.9 110.5H234.8C234.3 110.5 233.8 110.3 233.5 109.9C233.1 109.6 232.9 109.1 233 108.6V3.10005C233 2.60005 233.2 2.10005 233.5 1.80005C233.8 1.40005 234.3 1.30005 234.8 1.30005H290.9C291.9 1.30005 292.8 2.10005 292.8 3.10005C292.8 3.10005 292.8 3.10005 292.8 3.20005V21.6C292.7 22 292.5 22.5 292.1 22.8Z" fill="#F6F4E8"></path><path d="M341.9 108.8L331.3 67.5C331.2 67.1 330.9 66.8 330.5 66.9H328.2C327.8 66.8 327.5 67.1 327.4 67.5C327.4 67.6 327.4 67.6 327.4 67.7V108.5C327.4 109.5 326.6 110.4 325.6 110.4H303.5C302.5 110.4 301.6 109.6 301.6 108.6C301.6 108.6 301.6 108.6 301.6 108.5V3.10002C301.6 2.60002 301.8 2.10002 302.1 1.80002C302.4 1.40002 302.9 1.20002 303.4 1.30002H337C342.6 1.20002 348.2 2.70002 353 5.60002C357.7 8.50002 361.4 12.6 363.8 17.6C366.4 23.1 367.7 29.1 367.6 35.1C367.7 40.5 366.6 45.8 364.4 50.8C362.4 55.2 359.3 59.1 355.4 61.9C355.2 62 355.1 62.1 354.9 62.3C354.8 62.5 354.8 62.7 354.9 62.8L368.3 108.1L368.4 108.7C368.4 109.7 367.8 110.3 366.7 110.3H344C343.1 110.5 342.2 109.8 341.9 108.8ZM327.5 24.2V46.3C327.4 46.7 327.7 47 328.1 47.1C328.2 47.1 328.2 47.1 328.3 47.1H332.7C335.3 47.2 337.8 46 339.4 44C341.1 41.9 341.9 39.1 341.9 35.4C341.9 31.6 341.1 28.6 339.4 26.5C337.8 24.4 335.3 23.3 332.7 23.4H328.3C327.9 23.3 327.6 23.6 327.5 24C327.4 24 327.4 24.1 327.5 24.2Z" fill="#F6F4E8"></path><path d="M377.1 109.8C376.7 109.5 376.5 109 376.6 108.5V3.09995C376.6 2.09995 377.4 1.19995 378.4 1.19995C378.4 1.19995 378.4 1.19995 378.5 1.19995H400.6C401.1 1.19995 401.6 1.39995 401.9 1.69995C402.3 1.99995 402.5 2.49995 402.4 2.99995V108.3C402.4 108.8 402.2 109.3 401.9 109.6C401.6 110 401.1 110.1 400.6 110.1H378.5C377.9 110.3 377.4 110.2 377.1 109.8Z" fill="#F6F4E8"></path><path d="M420.8 102.9C414.9 97.1 411.9 89.3 411.9 79.7V31.8C411.9 22 414.9 14.3 420.8 8.6C426.7 2.9 434.6 0 444.5 0C454.4 0 462.3 2.9 468.3 8.6C474.3 14.3 477.3 22.1 477.3 31.8V33.2C477.3 33.7 477.1 34.2 476.8 34.5C476.5 34.9 476 35.1 475.5 35L453.2 36C452.3 36.1 451.5 35.5 451.3 34.6C451.3 34.4 451.3 34.3 451.3 34.1V29.9C451.4 27.8 450.7 25.8 449.4 24.2C448.1 22.8 446.3 22 444.4 22.1C442.6 22 440.8 22.8 439.6 24.2C438.3 25.8 437.6 27.8 437.7 29.9V81.8C437.6 83.8 438.3 85.8 439.6 87.3C440.8 88.7 442.6 89.5 444.4 89.4C446.3 89.5 448.1 88.7 449.4 87.3C450.7 85.8 451.4 83.8 451.3 81.8V77.3C451.3 76.3 452.1 75.4 453.1 75.4L475.2 76.3C475.7 76.3 476.2 76.5 476.5 76.9C476.9 77.2 477.1 77.7 477 78.2V79.6C477 89.3 474 97 468 102.8C462 108.6 454.1 111.5 444.2 111.5C434.6 111.6 426.7 108.7 420.8 102.9Z" fill="#F6F4E8"></path><path d="M487 109.8C486.6 109.5 486.4 109 486.5 108.5V3.10002C486.5 2.60002 486.7 2.10002 487 1.80002C487.3 1.40002 487.8 1.30002 488.3 1.30002H510.4C511.4 1.30002 512.3 2.10002 512.3 3.10002C512.3 3.10002 512.3 3.10002 512.3 3.20002V38.4C512.3 38.8 512.4 39 512.6 39C512.8 39 513 38.8 513.2 38.5L529.5 2.70002C529.8 1.80002 530.7 1.20002 531.7 1.30002H555.1C555.7 1.20002 556.2 1.40002 556.6 1.80002C556.9 2.30002 556.8 2.90002 556.5 3.40002L534 49.2C533.9 49.5 533.9 49.8 533.8 50.1L557.5 108.1C557.6 108.4 557.7 108.7 557.7 109C557.7 109.8 557.2 110.2 556.1 110.2H532.5C531.5 110.3 530.6 109.7 530.3 108.8L516.3 72.3C516.2 72 516 71.8 515.8 71.8C515.6 71.8 515.4 72 515.2 72.3L512.4 77.9C512.3 78.2 512.2 78.5 512.2 78.8V108.2C512.2 108.7 512 109.2 511.7 109.5C511.3 109.9 510.9 110 510.4 110H488.2C487.8 110.4 487.3 110.2 487 109.8Z" fill="#F6F4E8"></path></g><defs><clipPath id="clip0_18_13"><rect width="557.6" height="111.6" fill="white"></rect></clipPath></defs></svg>